<svg width="49" height="48" viewBox="0 0 49 48" fill="none" xmlns="http://www.w3.org/2000/svg">
<g clip-path="url(#clip0_16_1162)">
<path d="M24.333 4.32187C30.7455 4.32187 31.5049 4.35 34.0268 4.4625C36.3705 4.56562 37.6361 4.95938 38.4799 5.2875C39.5955 5.71875 40.4018 6.24375 41.2361 7.07812C42.0799 7.92188 42.5955 8.71875 43.0268 9.83438C43.3549 10.6781 43.7486 11.9531 43.8518 14.2875C43.9643 16.8187 43.9924 17.5781 43.9924 23.9813C43.9924 30.3938 43.9643 31.1531 43.8518 33.675C43.7486 36.0188 43.3549 37.2844 43.0268 38.1281C42.5955 39.2438 42.0705 40.05 41.2361 40.8844C40.3924 41.7281 39.5955 42.2438 38.4799 42.675C37.6361 43.0031 36.3611 43.3969 34.0268 43.5C31.4955 43.6125 30.7361 43.6406 24.333 43.6406C17.9205 43.6406 17.1611 43.6125 14.6393 43.5C12.2955 43.3969 11.0299 43.0031 10.1861 42.675C9.07051 42.2438 8.26426 41.7188 7.42988 40.8844C6.58613 40.0406 6.07051 39.2438 5.63926 38.1281C5.31113 37.2844 4.91738 36.0094 4.81426 33.675C4.70176 31.1438 4.67363 30.3844 4.67363 23.9813C4.67363 17.5688 4.70176 16.8094 4.81426 14.2875C4.91738 11.9437 5.31113 10.6781 5.63926 9.83438C6.07051 8.71875 6.59551 7.9125 7.42988 7.07812C8.27363 6.23438 9.07051 5.71875 10.1861 5.2875C11.0299 4.95938 12.3049 4.56562 14.6393 4.4625C17.1611 4.35 17.9205 4.32187 24.333 4.32187ZM24.333 0C17.8174 0 17.0018 0.028125 14.4424 0.140625C11.8924 0.253125 10.1393 0.665625 8.62051 1.25625C7.03613 1.875 5.69551 2.69062 4.36426 4.03125C3.02363 5.3625 2.20801 6.70313 1.58926 8.27813C0.998633 9.80625 0.586133 11.55 0.473633 14.1C0.361133 16.6687 0.333008 17.4844 0.333008 24C0.333008 30.5156 0.361133 31.3312 0.473633 33.8906C0.586133 36.4406 0.998633 38.1938 1.58926 39.7125C2.20801 41.2969 3.02363 42.6375 4.36426 43.9688C5.69551 45.3 7.03613 46.125 8.61113 46.7344C10.1393 47.325 11.883 47.7375 14.433 47.85C16.9924 47.9625 17.808 47.9906 24.3236 47.9906C30.8393 47.9906 31.6549 47.9625 34.2143 47.85C36.7643 47.7375 38.5174 47.325 40.0361 46.7344C41.6111 46.125 42.9518 45.3 44.283 43.9688C45.6143 42.6375 46.4393 41.2969 47.0486 39.7219C47.6393 38.1938 48.0518 36.45 48.1643 33.9C48.2768 31.3406 48.3049 30.525 48.3049 24.0094C48.3049 17.4938 48.2768 16.6781 48.1643 14.1188C48.0518 11.5688 47.6393 9.81563 47.0486 8.29688C46.458 6.70312 45.6424 5.3625 44.3018 4.03125C42.9705 2.7 41.6299 1.875 40.0549 1.26562C38.5268 0.675 36.783 0.2625 34.233 0.15C31.6643 0.028125 30.8486 0 24.333 0Z" fill="white"/>
<path d="M24.333 11.6719C17.5268 11.6719 12.0049 17.1938 12.0049 24C12.0049 30.8062 17.5268 36.3281 24.333 36.3281C31.1393 36.3281 36.6611 30.8062 36.6611 24C36.6611 17.1938 31.1393 11.6719 24.333 11.6719ZM24.333 31.9969C19.9174 31.9969 16.3361 28.4156 16.3361 24C16.3361 19.5844 19.9174 16.0031 24.333 16.0031C28.7486 16.0031 32.3299 19.5844 32.3299 24C32.3299 28.4156 28.7486 31.9969 24.333 31.9969Z" fill="white"/>
<path d="M40.0268 11.1844C40.0268 12.7782 38.733 14.0625 37.1486 14.0625C35.5549 14.0625 34.2705 12.7688 34.2705 11.1844C34.2705 9.59065 35.5643 8.30627 37.1486 8.30627C38.733 8.30627 40.0268 9.60003 40.0268 11.1844Z" fill="white"/>
</g>
<defs>
<clipPath id="clip0_16_1162">
<rect width="48" height="48" fill="white" transform="translate(0.333008)"/>
</clipPath>
</defs>
</svg>
